<svg width="20" height="21" viewBox="0 0 20 21" fill="none" xmlns="http://www.w3.org/2000/svg">
<path d="M18.0234 6.19325C17.4299 6.45701 16.7907 6.63465 16.1205 6.71539C16.8055 6.30494 17.329 5.6563 17.5779 4.88249C16.9374 5.26199 16.2282 5.53787 15.4732 5.6859C14.8703 5.04129 14.0077 4.63892 13.0563 4.63892C10.9165 4.63892 9.34471 6.63465 9.82783 8.70709C7.0758 8.56848 4.63328 7.24965 2.99955 5.24584C2.13155 6.73423 2.55007 8.68286 4.025 9.66929C3.48267 9.6518 2.97264 9.50242 2.52585 9.2548C2.48951 10.7889 3.59033 12.2249 5.18369 12.5451C4.71806 12.6716 4.20668 12.7012 3.68722 12.6017C4.10844 13.9178 5.33441 14.8746 6.78242 14.9015C5.38689 15.9943 3.63339 16.4828 1.87451 16.2755C3.34137 17.2162 5.08141 17.7639 6.95199 17.7639C13.1047 17.7639 16.5794 12.568 16.3695 7.90772C17.0181 7.44209 17.5793 6.85804 18.0234 6.19325V6.19325Z" fill="white"/>
</svg>
