<svg width="20" height="21" viewBox="0 0 20 21" fill="none" xmlns="http://www.w3.org/2000/svg">
<path fill-rule="evenodd" clip-rule="evenodd" d="M10.0005 2.76392C7.7932 2.76392 7.5183 2.7734 6.65028 2.81402C3.6982 2.94944 2.05965 4.58662 1.92424 7.53871C1.88497 8.40673 1.87549 8.68298 1.87549 10.8889C1.87549 13.0962 1.88497 13.3725 1.92424 14.2391C2.05965 17.1899 3.6982 18.8297 6.65028 18.9652C7.5183 19.0044 7.7932 19.0139 10.0005 19.0139C12.2078 19.0139 12.484 19.0044 13.3521 18.9652C16.2987 18.8297 17.944 17.1926 18.0767 14.2391C18.116 13.3725 18.1255 13.0962 18.1255 10.8889C18.1255 8.68298 18.116 8.40673 18.0767 7.53871C17.944 4.59069 16.3041 2.94808 13.3521 2.81402C12.484 2.7734 12.2078 2.76392 10.0005 2.76392ZM9.99985 4.22876C12.1692 4.22876 12.4265 4.23688 13.2837 4.27616C15.4869 4.37636 16.5134 5.42043 16.615 7.60605C16.6529 8.46324 16.661 8.71918 16.661 10.8886C16.661 13.0579 16.6529 13.3152 16.615 14.1711C16.5134 16.3553 15.4883 17.4021 13.2837 17.5023C12.4265 17.5402 12.1706 17.5497 9.99985 17.5497C7.83048 17.5497 7.57318 17.5416 6.71735 17.5023C4.51006 17.4007 3.48766 16.3526 3.3861 14.1711C3.34818 13.3152 3.3387 13.0579 3.3387 10.8886C3.3387 8.71918 3.34818 8.46188 3.3861 7.60605C3.48631 5.41907 4.51277 4.37501 6.71735 4.2748C7.57318 4.23553 7.83048 4.22876 9.99985 4.22876ZM5.82812 10.8887C5.82812 8.58395 7.69688 6.71655 10.0003 6.71655C12.3038 6.71655 14.1725 8.5853 14.1725 10.8887C14.1725 13.1935 12.3038 15.0609 10.0003 15.0609C7.69688 15.0609 5.82812 13.1935 5.82812 10.8887ZM10.0005 13.5968C8.50413 13.5968 7.29215 12.3849 7.29215 10.8885C7.29215 9.39351 8.50413 8.18018 10.0005 8.18018C11.4955 8.18018 12.7102 9.39215 12.7102 10.8885C12.7102 12.3849 11.4955 13.5968 10.0005 13.5968ZM13.3615 6.55264C13.3615 6.01368 13.7989 5.57764 14.3365 5.57764C14.8768 5.57764 15.3128 6.01368 15.3128 6.55264C15.3128 7.0916 14.8754 7.52764 14.3365 7.52764C13.7975 7.52764 13.3615 7.09024 13.3615 6.55264Z" fill="white"/>
</svg>
