<svg width="25" height="25" viewBox="0 0 25 25" fill="none" xmlns="http://www.w3.org/2000/svg">
<path d="M22.1154 17.8617V20.8617C22.1165 21.1402 22.0594 21.4159 21.9479 21.6711C21.8363 21.9263 21.6727 22.1553 21.4674 22.3436C21.2622 22.5319 21.0199 22.6752 20.7561 22.7645C20.4923 22.8537 20.2127 22.8868 19.9354 22.8617C16.8582 22.5274 13.9023 21.4759 11.3054 19.7917C8.88918 18.2564 6.84069 16.2079 5.30535 13.7917C3.61533 11.183 2.56359 8.21274 2.23535 5.12175C2.21036 4.84521 2.24323 4.56651 2.33185 4.30337C2.42048 4.04024 2.56292 3.79844 2.75012 3.59337C2.93731 3.3883 3.16516 3.22446 3.41914 3.11227C3.67313 3.00008 3.94769 2.94201 4.22535 2.94175H7.22535C7.71066 2.93697 8.18114 3.10883 8.54911 3.42528C8.91708 3.74173 9.15743 4.18119 9.22535 4.66175C9.35197 5.62181 9.5868 6.56447 9.92535 7.47175C10.0599 7.82967 10.089 8.21866 10.0093 8.59263C9.9295 8.96659 9.74421 9.30986 9.47535 9.58175L8.20535 10.8517C9.62891 13.3553 11.7018 15.4282 14.2054 16.8517L15.4754 15.5817C15.7472 15.3129 16.0905 15.1276 16.4645 15.0478C16.8384 14.9681 17.2274 14.9972 17.5854 15.1317C18.4926 15.4703 19.4353 15.7051 20.3954 15.8317C20.8811 15.9003 21.3248 16.145 21.6419 16.5192C21.959 16.8935 22.1275 17.3713 22.1154 17.8617Z" stroke="#2C2C2C" stroke-width="2" stroke-linecap="round" stroke-linejoin="round"/>
</svg>
